<svg width="1088" height="179" viewBox="0 0 1088 179" fill="none" xmlns="http://www.w3.org/2000/svg">
<path d="M6.04688 101H30.9375C34.6875 101 38.0625 100.578 41.0625 99.7344C44.0625 98.8906 46.6094 97.625 48.7031 95.9375C50.7969 94.25 52.4062 92.1562 53.5312 89.6562C54.6562 87.1562 55.2188 84.2656 55.2188 80.9844C55.2188 79.2656 54.9844 77.6094 54.5156 76.0156C54.0781 74.3906 53.3906 72.8906 52.4531 71.5156C51.5469 70.2344 50.4219 69.1094 49.0781 68.1406C47.7656 67.1719 45.9844 66.375 43.7344 65.75V65.7031C44.8906 65.2656 45.9375 64.7344 46.875 64.1094C47.8438 63.4844 48.7031 62.7969 49.4531 62.0469C50.8281 60.6719 51.8594 59.0781 52.5469 57.2656C53.2656 55.4219 53.6406 53.4688 53.6719 51.4062C53.6719 48.2188 53.0781 45.4531 51.8906 43.1094C50.7344 40.7656 49.0781 38.8281 46.9219 37.2969C44.7656 35.7656 42.1562 34.625 39.0938 33.875C36.0625 33.125 32.6875 32.75 28.9688 32.75H6.04688V101ZM19.2656 70.9062H31.5469C33.3906 70.9375 34.9844 71.1875 36.3281 71.6562C37.6719 72.125 38.7656 72.7969 39.6094 73.6719C40.4531 74.5156 41.0625 75.5469 41.4375 76.7656C41.8438 77.9844 42.0469 79.3594 42.0469 80.8906C42.0469 82.3594 41.7812 83.6875 41.25 84.875C40.75 86.0625 40 87.0781 39 87.9219C38.0938 88.6719 36.9531 89.2656 35.5781 89.7031C34.2344 90.1406 32.7031 90.3594 30.9844 90.3594H19.2656V70.9062ZM19.2656 61.3906V43.4844H29.0156C31.1406 43.5156 32.9844 43.75 34.5469 44.1875C36.1406 44.625 37.4062 45.3281 38.3438 46.2969C39.0625 46.9844 39.5938 47.8438 39.9375 48.875C40.3125 49.9062 40.5 51.1094 40.5 52.4844C40.5 53.7969 40.2812 54.9688 39.8438 56C39.4375 57.0312 38.8438 57.9062 38.0625 58.625C37.125 59.5312 35.8906 60.2188 34.3594 60.6875C32.8281 61.125 31.0625 61.3594 29.0625 61.3906H19.2656ZM68.6944 50.2812V60.9219H83.1319V90.4062H68.6944V101H110.038V90.4062H96.3037V50.2812H68.6944ZM82.1944 37.2969C82.1944 38.2969 82.3662 39.2344 82.71 40.1094C83.085 40.9531 83.6006 41.6719 84.2569 42.2656C84.9131 42.8906 85.6944 43.375 86.6006 43.7188C87.5381 44.0625 88.5694 44.2344 89.6944 44.2344C92.0069 44.2344 93.835 43.5938 95.1787 42.3125C96.5537 41 97.2412 39.3281 97.2412 37.2969C97.2412 35.2656 96.5537 33.6094 95.1787 32.3281C93.835 31.0156 92.0069 30.3594 89.6944 30.3594C88.5694 30.3594 87.5381 30.5313 86.6006 30.875C85.6944 31.2187 84.9131 31.6875 84.2569 32.2812C83.6006 32.9062 83.085 33.6562 82.71 34.5312C82.3662 35.375 82.1944 36.2969 82.1944 37.2969ZM123.842 101H136.92V64.9531C137.357 64.2656 137.842 63.6406 138.373 63.0781C138.904 62.5156 139.498 62.0312 140.154 61.625C140.967 61.0625 141.889 60.6406 142.92 60.3594C143.982 60.0781 145.139 59.9375 146.389 59.9375C147.889 59.9375 149.232 60.0938 150.42 60.4062C151.607 60.6875 152.623 61.2031 153.467 61.9531C154.311 62.7031 154.951 63.7344 155.389 65.0469C155.857 66.3281 156.092 67.9688 156.092 69.9688V101H169.123V69.7812C169.123 66.0938 168.686 62.9688 167.811 60.4062C166.967 57.8125 165.779 55.6875 164.248 54.0312C162.686 52.4062 160.842 51.2188 158.717 50.4688C156.592 49.7188 154.248 49.3438 151.686 49.3438C149.686 49.3438 147.795 49.625 146.014 50.1875C144.232 50.75 142.592 51.5625 141.092 52.625C140.217 53.25 139.389 53.9531 138.607 54.7344C137.826 55.5156 137.107 56.375 136.451 57.3125L135.654 50.2812H123.842V101ZM214.146 101H227.364V100.203C226.708 98.9219 226.208 97.3906 225.864 95.6094C225.521 93.8281 225.349 91.5781 225.349 88.8594V67.1094C225.349 64.1719 224.802 61.5938 223.708 59.375C222.614 57.125 221.099 55.2656 219.161 53.7969C217.224 52.3281 214.927 51.2188 212.271 50.4688C209.646 49.7188 206.802 49.3438 203.739 49.3438C200.333 49.3438 197.302 49.7812 194.646 50.6562C192.021 51.5 189.802 52.6562 187.989 54.125C186.146 55.5938 184.739 57.2969 183.771 59.2344C182.833 61.1719 182.364 63.2188 182.364 65.375H195.396C195.396 64.4688 195.521 63.6406 195.771 62.8906C196.052 62.1406 196.474 61.5 197.036 60.9688C197.661 60.375 198.474 59.9219 199.474 59.6094C200.474 59.2656 201.661 59.0938 203.036 59.0938C204.599 59.0938 205.958 59.2969 207.114 59.7031C208.302 60.0781 209.286 60.625 210.068 61.3438C210.818 62.0312 211.38 62.8594 211.755 63.8281C212.13 64.7656 212.318 65.8281 212.318 67.0156V70.0156H205.052C201.302 70.0156 197.974 70.3594 195.068 71.0469C192.193 71.7031 189.771 72.6719 187.802 73.9531C185.614 75.3594 183.974 77.1562 182.88 79.3438C181.786 81.5 181.239 83.9844 181.239 86.7969C181.239 88.9844 181.677 91.0156 182.552 92.8906C183.427 94.7344 184.646 96.3281 186.208 97.6719C187.771 99.0156 189.63 100.062 191.786 100.812C193.974 101.562 196.364 101.938 198.958 101.938C200.552 101.938 202.036 101.781 203.411 101.469C204.786 101.188 206.052 100.781 207.208 100.25C208.333 99.75 209.364 99.1562 210.302 98.4688C211.239 97.7812 212.068 97.0469 212.786 96.2656C212.943 97.1719 213.13 98.0312 213.349 98.8438C213.568 99.6562 213.833 100.375 214.146 101ZM201.724 91.8594C200.505 91.8594 199.427 91.7188 198.489 91.4375C197.583 91.125 196.818 90.7188 196.193 90.2188C195.568 89.6875 195.083 89.0469 194.739 88.2969C194.427 87.5156 194.271 86.6719 194.271 85.7656C194.271 84.6094 194.489 83.5469 194.927 82.5781C195.364 81.5781 196.036 80.7188 196.943 80C197.849 79.3125 199.021 78.7812 200.458 78.4062C201.896 78 203.63 77.7969 205.661 77.7969H212.318V86.5156C211.943 87.1719 211.427 87.8281 210.771 88.4844C210.114 89.1094 209.333 89.6719 208.427 90.1719C207.521 90.6719 206.505 91.0781 205.38 91.3906C204.255 91.7031 203.036 91.8594 201.724 91.8594ZM277.496 49.3438C274.09 49.3438 270.949 50.1719 268.074 51.8281C265.199 53.4531 262.731 55.7031 260.668 58.5781L260.574 57.4531L260.059 50.2812H247.918V101H260.949V70.5312C261.543 69.0938 262.293 67.8438 263.199 66.7812C264.106 65.7188 265.199 64.8438 266.481 64.1562C267.543 63.5625 268.746 63.125 270.09 62.8438C271.465 62.5312 272.996 62.375 274.684 62.375C276.309 62.375 278.012 62.4844 279.793 62.7031C281.606 62.8906 283.371 63.1875 285.09 63.5938L287.012 50.6094C285.981 50.2969 284.621 50.0156 282.934 49.7656C281.277 49.4844 279.465 49.3438 277.496 49.3438ZM307.706 121.484C310.331 121.484 312.597 121.047 314.503 120.172C316.441 119.297 318.081 118.219 319.425 116.938C320.769 115.656 321.878 114.266 322.753 112.766C323.659 111.266 324.394 109.875 324.956 108.594L350.691 50.2812H336.3L324.722 80.0938L322.8 85.1562L321.394 80L309.769 50.2812H295.519L316.987 98.8438L313.987 104.422C313.612 105.109 313.284 105.641 313.003 106.016C312.753 106.391 312.347 106.953 311.784 107.703C311.222 108.453 310.534 109.141 309.722 109.766C308.941 110.422 308.034 110.75 307.003 110.75C306.503 110.75 305.831 110.719 304.987 110.656C304.175 110.625 303.503 110.609 302.972 110.609L301.378 120.547C302.503 120.859 303.519 121.094 304.425 121.25C305.362 121.406 306.456 121.484 307.706 121.484ZM440.829 37.8594H427.798V50.2812H416.22V59.8906H427.798V82.9531C427.798 86.2969 428.236 89.1719 429.111 91.5781C429.986 93.9531 431.236 95.9062 432.861 97.4375C434.454 99 436.376 100.156 438.626 100.906C440.908 101.625 443.439 101.984 446.22 101.984C447.658 101.984 449.111 101.906 450.579 101.75C452.079 101.625 453.517 101.438 454.892 101.188C456.267 100.938 457.564 100.625 458.783 100.25C460.001 99.8438 461.064 99.375 461.97 98.8438L460.704 89.8906C460.111 90.0469 459.392 90.2031 458.548 90.3594C457.736 90.5156 456.861 90.6562 455.923 90.7812C454.954 90.9375 453.939 91.0625 452.876 91.1562C451.845 91.25 450.829 91.2969 449.829 91.2969C448.454 91.2969 447.204 91.1406 446.079 90.8281C444.986 90.5156 444.048 89.9844 443.267 89.2344C442.486 88.5156 441.876 87.5469 441.439 86.3281C441.033 85.0781 440.829 83.5312 440.829 81.6875V59.8906H459.767V50.2812H440.829V37.8594ZM473.758 75.1719V76.1562C473.758 79.875 474.289 83.3125 475.352 86.4688C476.414 89.5938 477.977 92.3125 480.039 94.625C482.071 96.9375 484.571 98.75 487.539 100.062C490.539 101.344 493.946 101.984 497.758 101.984C501.539 101.984 504.914 101.344 507.883 100.062C510.852 98.75 513.352 96.9375 515.383 94.625C517.414 92.3125 518.961 89.5938 520.024 86.4688C521.086 83.3125 521.617 79.875 521.617 76.1562V75.1719C521.617 71.4844 521.086 68.0781 520.024 64.9531C518.961 61.7969 517.414 59.0625 515.383 56.75C513.321 54.4375 510.805 52.625 507.836 51.3125C504.867 50 501.477 49.3438 497.664 49.3438C493.852 49.3438 490.461 50 487.492 51.3125C484.555 52.625 482.071 54.4375 480.039 56.75C477.977 59.0625 476.414 61.7969 475.352 64.9531C474.289 68.0781 473.758 71.4844 473.758 75.1719ZM486.789 76.1562V75.1719C486.789 73.1094 486.992 71.1562 487.399 69.3125C487.805 67.4688 488.446 65.8438 489.321 64.4375C490.196 63.0312 491.321 61.9219 492.696 61.1094C494.071 60.2969 495.727 59.8906 497.664 59.8906C499.633 59.8906 501.305 60.2969 502.68 61.1094C504.055 61.9219 505.18 63.0312 506.055 64.4375C506.899 65.8438 507.524 67.4688 507.93 69.3125C508.336 71.1562 508.539 73.1094 508.539 75.1719V76.1562C508.539 78.2812 508.336 80.2812 507.93 82.1562C507.524 84 506.899 85.6094 506.055 86.9844C505.18 88.3906 504.055 89.5 502.68 90.3125C501.305 91.125 499.664 91.5312 497.758 91.5312C495.789 91.5312 494.102 91.125 492.696 90.3125C491.321 89.5 490.196 88.3906 489.321 86.9844C488.446 85.6094 487.805 84 487.399 82.1562C486.992 80.2812 486.789 78.2812 486.789 76.1562ZM592.022 101H610.35C613.381 101 616.225 100.625 618.881 99.875C621.569 99.125 624.022 98.0469 626.241 96.6406C628.147 95.4531 629.897 93.9844 631.491 92.2344C633.084 90.4531 634.475 88.5156 635.662 86.4219C636.912 84.0781 637.881 81.5 638.569 78.6875C639.256 75.875 639.6 72.8906 639.6 69.7344V64.1094C639.6 60.8281 639.225 57.7344 638.475 54.8281C637.756 51.9219 636.725 49.2656 635.381 46.8594C634.225 44.8906 632.866 43.0781 631.303 41.4219C629.772 39.7344 628.022 38.3125 626.053 37.1562C623.803 35.75 621.303 34.6719 618.553 33.9219C615.803 33.1406 612.85 32.75 609.694 32.75H592.022V101ZM605.287 43.4375H609.694C611.287 43.4375 612.756 43.625 614.1 44C615.475 44.3438 616.725 44.8438 617.85 45.5C619.319 46.375 620.6 47.5 621.694 48.875C622.819 50.25 623.725 51.8125 624.412 53.5625C624.975 55.0312 625.397 56.6562 625.678 58.4375C625.991 60.1875 626.147 62.0469 626.147 64.0156V69.7344C626.147 71.8281 625.991 73.7812 625.678 75.5938C625.397 77.375 624.975 79 624.412 80.4688C623.725 82.1562 622.897 83.6406 621.928 84.9219C620.991 86.1719 619.928 87.2031 618.741 88.0156C617.584 88.7969 616.303 89.3906 614.897 89.7969C613.491 90.2031 611.975 90.4062 610.35 90.4062H605.287V43.4375ZM675.997 101.938C680.904 101.938 685.154 100.984 688.747 99.0781C692.341 97.1719 694.966 95.0469 696.622 92.7031L690.107 85.6719C688.607 87.6094 686.654 89.0625 684.247 90.0312C681.841 91 679.357 91.4844 676.794 91.4844C674.982 91.4844 673.31 91.2031 671.779 90.6406C670.247 90.0781 668.888 89.2812 667.701 88.25C666.544 87.25 665.622 86.1406 664.935 84.9219C664.247 83.6719 663.685 82.0312 663.247 80V79.8594H697.654V74.3281C697.654 70.6094 697.138 67.2188 696.107 64.1562C695.076 61.0625 693.576 58.4219 691.607 56.2344C689.607 54.0469 687.169 52.3594 684.294 51.1719C681.451 49.9531 678.201 49.3438 674.544 49.3438C671.013 49.3438 667.747 49.9844 664.747 51.2656C661.747 52.5469 659.154 54.3438 656.966 56.6562C654.779 58.9688 653.076 61.7344 651.857 64.9531C650.638 68.1406 650.029 71.6719 650.029 75.5469V77.4219C650.029 80.8281 650.638 84.0312 651.857 87.0312C653.107 90 654.872 92.5781 657.154 94.7656C659.435 96.9844 662.169 98.7344 665.357 100.016C668.544 101.297 672.091 101.938 675.997 101.938ZM674.451 59.8906C676.107 59.8906 677.56 60.1562 678.81 60.6875C680.091 61.1875 681.169 61.875 682.044 62.75C682.919 63.6562 683.607 64.7188 684.107 65.9375C684.607 67.1562 684.857 68.4531 684.857 69.8281V70.8594H663.482C663.794 69.2031 664.263 67.7031 664.888 66.3594C665.513 65.0156 666.294 63.8594 667.232 62.8906C668.138 61.9219 669.201 61.1875 670.419 60.6875C671.638 60.1562 672.982 59.8906 674.451 59.8906ZM732.458 91.5312C730.364 91.5312 728.629 91.1094 727.254 90.2656C725.911 89.4219 724.848 88.2969 724.067 86.8906C723.254 85.5156 722.692 83.9219 722.379 82.1094C722.067 80.2656 721.911 78.3594 721.911 76.3906V74.9844C721.911 73.0469 722.067 71.1719 722.379 69.3594C722.723 67.5469 723.301 65.9375 724.114 64.5312C724.895 63.125 725.958 62 727.301 61.1562C728.645 60.3125 730.348 59.8906 732.411 59.8906C733.817 59.8906 735.114 60.1406 736.301 60.6406C737.489 61.1094 738.504 61.75 739.348 62.5625C740.192 63.375 740.833 64.3438 741.27 65.4688C741.708 66.5938 741.895 67.7812 741.833 69.0312H754.114C754.176 66.0312 753.676 63.3281 752.614 60.9219C751.551 58.4844 750.067 56.4062 748.161 54.6875C746.223 53 743.926 51.6875 741.27 50.75C738.614 49.8125 735.723 49.3438 732.598 49.3438C728.692 49.3438 725.254 50.0156 722.286 51.3594C719.348 52.7031 716.879 54.5312 714.879 56.8438C712.879 59.1562 711.379 61.875 710.379 65C709.379 68.0938 708.879 71.4219 708.879 74.9844V76.3906C708.879 79.9531 709.379 83.2969 710.379 86.4219C711.411 89.5156 712.926 92.2188 714.926 94.5312C716.895 96.8438 719.364 98.6719 722.333 100.016C725.301 101.328 728.754 101.984 732.692 101.984C735.598 101.984 738.348 101.531 740.942 100.625C743.567 99.6875 745.864 98.4062 747.833 96.7812C749.801 95.1562 751.348 93.2188 752.473 90.9688C753.629 88.7188 754.176 86.2812 754.114 83.6562H741.833C741.895 84.8438 741.676 85.9219 741.176 86.8906C740.708 87.8594 740.036 88.6875 739.161 89.375C738.286 90.0625 737.27 90.5938 736.114 90.9688C734.958 91.3438 733.739 91.5312 732.458 91.5312ZM772.089 50.2812V60.9219H786.527V90.4062H772.089V101H813.433V90.4062H799.699V50.2812H772.089ZM785.589 37.2969C785.589 38.2969 785.761 39.2344 786.105 40.1094C786.48 40.9531 786.996 41.6719 787.652 42.2656C788.308 42.8906 789.089 43.375 789.996 43.7188C790.933 44.0625 791.964 44.2344 793.089 44.2344C795.402 44.2344 797.23 43.5938 798.574 42.3125C799.949 41 800.636 39.3281 800.636 37.2969C800.636 35.2656 799.949 33.6094 798.574 32.3281C797.23 31.0156 795.402 30.3594 793.089 30.3594C791.964 30.3594 790.933 30.5313 789.996 30.875C789.089 31.2187 788.308 31.6875 787.652 32.2812C786.996 32.9062 786.48 33.6562 786.105 34.5312C785.761 35.375 785.589 36.2969 785.589 37.2969ZM835.346 50.2812H824.143V101H836.003V63.0312C836.159 62.625 836.331 62.25 836.518 61.9062C836.706 61.5625 836.924 61.2656 837.174 61.0156C837.518 60.6719 837.909 60.4062 838.346 60.2188C838.784 60.0312 839.284 59.9375 839.846 59.9375C840.346 59.9375 840.815 60.0156 841.253 60.1719C841.69 60.2969 842.081 60.5312 842.424 60.875C842.737 61.2188 842.987 61.7031 843.174 62.3281C843.362 62.9531 843.456 63.75 843.456 64.7188V101H854.94V63.5938C854.94 63.2188 854.94 62.9219 854.94 62.7031C854.94 62.4844 854.94 62.3438 854.94 62.2812C855.096 61.9375 855.284 61.6406 855.503 61.3906C855.721 61.1094 855.971 60.8594 856.253 60.6406C856.596 60.4219 856.956 60.25 857.331 60.125C857.737 60 858.19 59.9375 858.69 59.9375C859.159 59.9375 859.612 60.0156 860.049 60.1719C860.518 60.2969 860.924 60.5312 861.268 60.875C861.612 61.25 861.878 61.75 862.065 62.375C862.284 63 862.393 63.7969 862.393 64.7656V101H874.253V64.8125C874.253 62 873.971 59.625 873.409 57.6875C872.878 55.7188 872.128 54.1094 871.159 52.8594C870.159 51.6406 868.987 50.75 867.643 50.1875C866.331 49.625 864.909 49.3438 863.378 49.3438C862.159 49.3438 861.034 49.5 860.003 49.8125C858.971 50.125 858.049 50.5625 857.237 51.125C856.581 51.5625 855.971 52.0938 855.409 52.7188C854.878 53.3125 854.393 53.9844 853.956 54.7344C853.674 53.9531 853.331 53.2656 852.924 52.6719C852.549 52.0469 852.096 51.5156 851.565 51.0781C850.878 50.4844 850.065 50.0469 849.128 49.7656C848.19 49.4844 847.128 49.3438 845.94 49.3438C843.503 49.3438 841.424 49.9844 839.706 51.2656C838.018 52.5156 836.69 54.2344 835.721 56.4219L835.346 50.2812ZM917.541 101H930.759V100.203C930.103 98.9219 929.603 97.3906 929.259 95.6094C928.916 93.8281 928.744 91.5781 928.744 88.8594V67.1094C928.744 64.1719 928.197 61.5938 927.103 59.375C926.009 57.125 924.494 55.2656 922.556 53.7969C920.619 52.3281 918.322 51.2188 915.666 50.4688C913.041 49.7188 910.197 49.3438 907.134 49.3438C903.728 49.3438 900.697 49.7812 898.041 50.6562C895.416 51.5 893.197 52.6562 891.384 54.125C889.541 55.5938 888.134 57.2969 887.166 59.2344C886.228 61.1719 885.759 63.2188 885.759 65.375H898.791C898.791 64.4688 898.916 63.6406 899.166 62.8906C899.447 62.1406 899.869 61.5 900.431 60.9688C901.056 60.375 901.869 59.9219 902.869 59.6094C903.869 59.2656 905.056 59.0938 906.431 59.0938C907.994 59.0938 909.353 59.2969 910.509 59.7031C911.697 60.0781 912.681 60.625 913.463 61.3438C914.213 62.0312 914.775 62.8594 915.15 63.8281C915.525 64.7656 915.713 65.8281 915.713 67.0156V70.0156H908.447C904.697 70.0156 901.369 70.3594 898.463 71.0469C895.588 71.7031 893.166 72.6719 891.197 73.9531C889.009 75.3594 887.369 77.1562 886.275 79.3438C885.181 81.5 884.634 83.9844 884.634 86.7969C884.634 88.9844 885.072 91.0156 885.947 92.8906C886.822 94.7344 888.041 96.3281 889.603 97.6719C891.166 99.0156 893.025 100.062 895.181 100.812C897.369 101.562 899.759 101.938 902.353 101.938C903.947 101.938 905.431 101.781 906.806 101.469C908.181 101.188 909.447 100.781 910.603 100.25C911.728 99.75 912.759 99.1562 913.697 98.4688C914.634 97.7812 915.463 97.0469 916.181 96.2656C916.338 97.1719 916.525 98.0312 916.744 98.8438C916.963 99.6562 917.228 100.375 917.541 101ZM905.119 91.8594C903.9 91.8594 902.822 91.7188 901.884 91.4375C900.978 91.125 900.213 90.7188 899.588 90.2188C898.963 89.6875 898.478 89.0469 898.134 88.2969C897.822 87.5156 897.666 86.6719 897.666 85.7656C897.666 84.6094 897.884 83.5469 898.322 82.5781C898.759 81.5781 899.431 80.7188 900.338 80C901.244 79.3125 902.416 78.7812 903.853 78.4062C905.291 78 907.025 77.7969 909.056 77.7969H915.713V86.5156C915.338 87.1719 914.822 87.8281 914.166 88.4844C913.509 89.1094 912.728 89.6719 911.822 90.1719C910.916 90.6719 909.9 91.0781 908.775 91.3906C907.65 91.7031 906.431 91.8594 905.119 91.8594ZM947.188 29V39.6406H962.376V90.4062H947.188V101H990.079V90.4062H975.547V29H947.188Z" fill="#5E6472"/>
<path d="M964.549 160.498L974.621 162.19C974.966 162.248 975.32 162.236 975.66 162.154C976 162.072 976.32 161.921 976.6 161.711C976.881 161.502 977.116 161.237 977.291 160.934C977.466 160.631 977.577 160.296 977.619 159.948L979.723 142.224C983.686 148.876 989.05 154.585 995.443 158.953C1001.84 163.321 1009.1 166.245 1016.74 167.519C1045.77 172.397 1073.43 152.681 1078.28 123.645C1083.15 94.563 1063.53 67.0353 1034.44 62.149C1021.4 59.9387 1008 62.6644 996.859 69.7947C996.562 69.9825 996.306 70.229 996.108 70.5191C995.909 70.8091 995.771 71.1367 995.704 71.4816C995.636 71.8266 995.639 72.1818 995.713 72.5255C995.788 72.8692 995.931 73.1941 996.135 73.4804L1002.14 81.9169C1002.52 82.4507 1003.09 82.8201 1003.74 82.9503C1004.38 83.0805 1005.05 82.9619 1005.6 82.6184C1012.16 78.5559 1019.79 76.5868 1027.49 76.9735C1035.19 77.3602 1042.58 80.0843 1048.69 84.7827C1054.81 89.4811 1059.34 95.9305 1061.69 103.271C1064.04 110.612 1064.1 118.495 1061.86 125.87C1059.62 133.245 1055.18 139.761 1049.14 144.549C1043.1 149.338 1035.74 152.172 1028.05 152.672C1020.36 153.173 1012.7 151.318 1006.09 147.353C999.475 143.388 994.23 137.503 991.049 130.481L1012.44 135.139C1012.79 135.214 1013.14 135.218 1013.48 135.151C1013.83 135.085 1014.15 134.949 1014.44 134.753C1014.73 134.557 1014.98 134.303 1015.17 134.009C1015.36 133.714 1015.49 133.384 1015.54 133.039L1017.24 122.967C1017.35 122.291 1017.19 121.597 1016.79 121.039C1016.39 120.481 1015.79 120.103 1015.11 119.989L972.557 112.839C971.88 112.726 971.187 112.885 970.628 113.283C970.07 113.681 969.693 114.284 969.579 114.96L962.428 157.52C962.315 158.196 962.474 158.89 962.872 159.448C963.27 160.007 963.873 160.384 964.549 160.498Z" fill="#5E6472"/>
</svg>
